name C:\Users\u0101727\Documents\MyRepositories\upper-imu-dc\Results\main_tracking\Case_14\ABD01_angularVelocities_groundFrame.mot
datacolumns 4
datarows 105
range 8.06000000 9.10000000
endheader 
time	radius_imu_x	radius_imu_y	radius_imu_z	
          8.06000000	          1.28151666	          0.03619687	         -1.11096370	
          8.07000000	          1.28792202	          0.04678433	         -0.98034333	
          8.08000000	          1.28941434	          0.04872922	         -0.86084468	
          8.09000000	          1.28563444	          0.04172445	         -0.75809967	
          8.10000000	          1.27706361	          0.02693995	         -0.67415606	
          8.11000000	          1.26491902	          0.00678675	         -0.60663110	
          8.12000000	          1.25104892	         -0.01542867	         -0.54827952	
          8.13000000	          1.23783264	         -0.03593885	         -0.48722012	
          8.14000000	          1.22798050	         -0.05108269	         -0.40824014	
          8.15000000	          1.22415041	         -0.05797883	         -0.29534353	
          8.16000000	          1.22843090	         -0.05514561	         -0.13513507	
          8.17000000	          1.24183160	         -0.04288793	          0.07968694	
          8.18000000	          1.26389352	         -0.02336464	          0.34731157	
          8.19000000	          1.29248059	         -0.00033288	          0.65463659	
          8.20000000	          1.32380999	          0.02141703	          0.97636606	
          8.21000000	          1.35279718	          0.03692270	          1.27610154	
          8.22000000	          1.37377713	          0.04213714	          1.51029511	
          8.23000000	          1.38158238	          0.03504299	          1.63554227	
          8.24000000	          1.37281100	          0.01645472	          1.61856309	
          8.25000000	          1.34691054	         -0.00988673	          1.44635660	
          8.26000000	          1.30657391	         -0.03817193	          1.13228550	
          8.27000000	          1.25716953	         -0.06213320	          0.71469329	
          8.28000000	          1.20548603	         -0.07674505	          0.24877000	
          8.29000000	          1.15841199	         -0.07936241	         -0.20408891	
          8.30000000	          1.12196443	         -0.07009257	         -0.58561275	
          8.31000000	          1.10069172	         -0.05157458	         -0.84746865	
          8.32000000	          1.09732661	         -0.02839371	         -0.95601303	
          8.33000000	          1.11263263	         -0.00624507	         -0.89554237	
          8.34000000	          1.14544863	          0.00910168	         -0.67011325	
          8.35000000	          1.19289614	          0.01294103	         -0.30376339	
          8.36000000	          1.25066069	          0.00271698	          0.16095922	
          8.37000000	          1.31330386	         -0.02112045	          0.66636873	
          8.38000000	          1.37468101	         -0.05468397	          1.14552772	
          8.39000000	          1.42860579	         -0.09088895	          1.53129283	
          8.40000000	          1.46981801	         -0.12059904	          1.76816956	
          8.41000000	          1.49506955	         -0.13467197	          1.82446074	
          8.42000000	          1.50387961	         -0.12637873	          1.69993258	
          8.43000000	          1.49852809	         -0.09324788	          1.42479606	
          8.44000000	          1.48326930	         -0.03761939	          1.05034061	
          8.45000000	          1.46316273	          0.03410848	          0.63581034	
          8.46000000	          1.44295762	          0.11311952	          0.23614585	
          8.47000000	          1.42628045	          0.19022871	         -0.10698559	
          8.48000000	          1.41523316	          0.25781709	         -0.36980283	
          8.49000000	          1.41041014	          0.31112843	         -0.54642565	
          8.50000000	          1.41122560	          0.34864847	         -0.64522863	
          8.51000000	          1.41637357	          0.37164442	         -0.68333512	
          8.52000000	          1.42426156	          0.38316222	         -0.68097354	
          8.53000000	          1.43335161	          0.38681629	         -0.65678261	
          8.54000000	          1.44239137	          0.38565103	         -0.62454946	
          8.55000000	          1.45055162	          0.38129764	         -0.59156814	
          8.56000000	          1.45746135	          0.37365741	         -0.55883206	
          8.57000000	          1.46311378	          0.36125435	         -0.52299995	
          8.58000000	          1.46767884	          0.34214823	         -0.47942529	
          8.59000000	          1.47129929	          0.31504612	         -0.42510180	
          8.60000000	          1.47395126	          0.28016341	         -0.36048480	
          8.61000000	          1.47540164	          0.23956689	         -0.28983279	
          8.62000000	          1.47523940	          0.19707853	         -0.22052850	
          8.63000000	          1.47294297	          0.15802093	         -0.16211642	
          8.64000000	          1.46797977	          0.12889724	         -0.12527105	
          8.65000000	          1.45996460	          0.11670908	         -0.12020359	
          8.66000000	          1.44887353	          0.12752771	         -0.15403843	
          8.67000000	          1.43522672	          0.16444762	         -0.22770890	
          8.68000000	          1.42009749	          0.22586103	         -0.33410942	
          8.69000000	          1.40487401	          0.30519165	         -0.45907171	
          8.70000000	          1.39087276	          0.39237578	         -0.58494331	
          8.71000000	          1.37900307	          0.47634757	         -0.69499695	
          8.72000000	          1.36962099	          0.54749333	         -0.77690997	
          8.73000000	          1.36257960	          0.59936897	         -0.82448931	
          8.74000000	          1.35739140	          0.62944881	         -0.83771675	
          8.75000000	          1.35340116	          0.63899052	         -0.82161344	
          8.76000000	          1.34990886	          0.63214908	         -0.78435609	
          8.77000000	          1.34623923	          0.61443273	         -0.73491409	
          8.78000000	          1.34178476	          0.59077617	         -0.68062985	
          8.79000000	          1.33604412	          0.56384109	         -0.62545518	
          8.80000000	          1.32866087	          0.53330584	         -0.56956435	
          8.81000000	          1.31946219	          0.49659266	         -0.51056817	
          8.82000000	          1.30850026	          0.45074939	         -0.44574989	
          8.83000000	          1.29609143	          0.39454207	         -0.37420218	
          8.84000000	          1.28282996	          0.32969990	         -0.29785888	
          8.85000000	          1.26954082	          0.26077016	         -0.22109223	
          8.86000000	          1.25714416	          0.19383932	         -0.14933867	
          8.87000000	          1.24645551	          0.13485012	         -0.08754262	
          8.88000000	          1.23799250	          0.08817456	         -0.03900709	
          8.89000000	          1.23185916	          0.05573832	         -0.00484703	
          8.90000000	          1.22774974	          0.03672257	          0.01602206	
          8.91000000	          1.22506188	          0.02784750	          0.02645021	
          8.92000000	          1.22307292	          0.02424907	          0.03024201	
          8.93000000	          1.22112073	          0.02083668	          0.03110613	
          8.94000000	          1.21873543	          0.01379651	          0.03163497	
          8.95000000	          1.21568878	          0.00173259	          0.03266349	
          8.96000000	          1.21195870	         -0.01400997	          0.03326406	
          8.97000000	          1.20763639	         -0.02999238	          0.03138199	
          8.98000000	          1.20282036	         -0.04204417	          0.02483894	
          8.99000000	          1.19753616	         -0.04675842	          0.01227178	
          9.00000000	          1.19170098	         -0.04249772	         -0.00636572	
          9.01000000	          1.18513632	         -0.02960147	         -0.02984813	
          9.02000000	          1.17762238	         -0.00992225	         -0.05610993	
          9.03000000	          1.16897175	          0.01395547	         -0.08281220	
          9.04000000	          1.15908666	          0.03951934	         -0.10787178	
          9.05000000	          1.14796997	          0.06504073	         -0.12989762	
          9.06000000	          1.13568422	          0.09020302	         -0.14853915	
          9.07000000	          1.12227830	          0.11662942	         -0.16472277	
          9.08000000	          1.10771464	          0.14813737	         -0.18067116	
          9.09000000	          1.09183120	          0.19042843	         -0.19957157	
          9.10000000	          1.07435845	          0.25005420	         -0.22487213	
